<?xml version="1.0" encoding="iso-8859-1"?>
<!-- Generator: Adobe Illustrator 16.0.0, SVG Export Plug-In . SVG Version: 6.00 Build 0)  -->
<!DOCTYPE svg PUBLIC "-//W3C//DTD SVG 1.1//EN" "http://www.w3.org/Graphics/SVG/1.1/DTD/svg11.dtd">
<svg version="1.1" id="Capa_1" xmlns="http://www.w3.org/2000/svg" xmlns:xlink="http://www.w3.org/1999/xlink" x="0px" y="0px"
	 width="612px" height="612px" viewBox="0 0 612 612" style="enable-background:new 0 0 612 612;" xml:space="preserve">
<g>
	<path d="M33.851,410.035H8.685c-4.796,0-8.685-3.889-8.685-8.686V69.911c0-4.796,3.889-8.685,8.685-8.685h25.166
		c4.797,0,8.685,3.889,8.685,8.685V401.35C42.536,406.146,38.648,410.035,33.851,410.035z M138.343,61.226H95.607
		c-4.796,0-8.685,3.889-8.685,8.685V401.35c0,4.797,3.889,8.686,8.685,8.686h42.736c4.797,0,8.685-3.889,8.685-8.686V69.911
		C147.028,65.114,143.14,61.226,138.343,61.226z M216.48,61.226h-12.683c-4.796,0-8.685,3.889-8.685,8.685V401.35
		c0,4.797,3.889,8.686,8.685,8.686h12.683c4.796,0,8.685-3.889,8.685-8.686V69.911C225.166,65.114,221.277,61.226,216.48,61.226z
		 M322.33,61.205h-52.874c-4.772,0-8.685,3.913-8.685,8.685v172.364c17.561-25.291,41.802-45.62,70.243-58.41V69.889
		C331.015,65.117,327.197,61.205,322.33,61.205z M384.271,61.205h-0.191c-4.772,0-8.686,3.913-8.686,8.685V170.58
		c5.823-0.859,11.645-1.528,17.562-1.813V69.889C392.955,65.117,389.137,61.205,384.271,61.205z M433.326,61.205H427.6
		c-4.771,0-8.685,3.913-8.685,8.685v99.542c7.825,0.764,15.557,2.1,23.097,4.009V69.889
		C442.011,65.117,438.098,61.205,433.326,61.205z M497.175,61.205h-27.964c-4.771,0-8.685,3.913-8.685,8.685v109.087
		c16.415,6.013,31.687,14.507,45.334,25.005V69.889C505.86,65.117,501.947,61.205,497.175,61.205z M602.213,493.773l-71.765-71.764
		c15.026-23.639,23.859-51.584,23.859-81.609c0-84.199-68.504-152.703-152.703-152.703S248.901,256.201,248.901,340.4
		s68.504,152.703,152.703,152.703c30.024,0,57.97-8.832,81.608-23.859l71.766,71.766c6.523,6.523,15.071,9.785,23.618,9.785
		c8.546,0,17.093-3.262,23.617-9.785C615.262,527.971,615.262,506.814,602.213,493.773z M296.62,340.4
		c0-57.889,47.096-104.983,104.983-104.983S506.587,282.513,506.587,340.4c0,57.887-47.095,104.982-104.982,104.982
		C343.716,445.383,296.62,398.289,296.62,340.4z"/>
</g>
<g>
</g>
<g>
</g>
<g>
</g>
<g>
</g>
<g>
</g>
<g>
</g>
<g>
</g>
<g>
</g>
<g>
</g>
<g>
</g>
<g>
</g>
<g>
</g>
<g>
</g>
<g>
</g>
<g>
</g>
</svg>
