<?xml version="1.0" encoding="iso-8859-1"?>
<!-- Generator: Adobe Illustrator 16.0.0, SVG Export Plug-In . SVG Version: 6.00 Build 0)  -->
<!DOCTYPE svg PUBLIC "-//W3C//DTD SVG 1.1//EN" "http://www.w3.org/Graphics/SVG/1.1/DTD/svg11.dtd">
<svg version="1.1" id="Capa_1" xmlns="http://www.w3.org/2000/svg" xmlns:xlink="http://www.w3.org/1999/xlink" x="0px" y="0px"
	 width="458.104px" height="458.104px" viewBox="0 0 458.104 458.104" style="enable-background:new 0 0 458.104 458.104;"
	 xml:space="preserve">
<g>
	<path d="M445.945,70.403H12.159C5.447,70.403,0,75.851,0,82.562v292.982c0,6.71,5.453,12.158,12.159,12.158h433.787
		c6.709,0,12.159-5.448,12.159-12.158V82.562C458.104,75.851,452.654,70.403,445.945,70.403z M161.387,343.86H43.806v-22.304
		h117.581V343.86z M161.387,282.454H43.806v-22.293h117.581V282.454z M201.922,219.266H43.806v-22.295h158.116V219.266z
		 M410.208,348.483h-17.133c1.009-20.831-8.591-42.725-8.591-42.725c-3.25-7.218-23.079-13.466-23.079-13.466
		c-10.585-3.721-10.659-7.442-10.659-7.442c-20.796,40.981-36.588,0.121-36.588,0.121c-1.456,5.516-22.851,12.016-22.851,12.016
		c-6.247,2.408-8.898,6.003-8.898,6.003c-9.241,13.719-10.319,44.241-10.319,44.241c0,0.471,0.055,0.843,0.088,1.252h-9.445V190.376
		h147.476V348.483z M426.937,143.252c0,6.711-5.462,12.164-12.168,12.164H43.817c-6.711,0-12.17-5.453-12.17-12.164v-21.286
		c0-6.714,5.458-12.156,12.17-12.156h370.951c6.706,0,12.168,5.442,12.168,12.156V143.252z M308.905,263.182
		c1.603,13.192,12.947,26.846,23.234,26.846c11.821,0,23.069-14.364,24.815-26.846c0.673-0.481,1.756-1.62,2.167-4.213
		c0,0,2.53-9.038-0.836-8.082c1.169-3.481,5.038-17.051-2.451-25.483c0,0-3.51-4.786-12.027-7.335l-3.975-1.375
		c-1.576-1.138-4.738-3.822-4.738-6.801c0,0-1.979,0.92-3.142,2.61c0.462-1.385,1.227-2.685,2.451-3.738
		c0,0-1.289,0.673-2.484,2.123c-0.919,0.522-3.053,1.967-3.754,4.55l0.033-0.161c0,0-0.431-0.588-1.62-0.761
		c-1.168-0.164-3.217,0.621-3.217,0.621s-12.431,4.851-16.021,16.033c0,0-2.151,5.057,0.673,19.913
		c-3.987-1.889-1.27,7.886-1.27,7.886C307.154,261.572,308.256,262.7,308.905,263.182z M331.543,211.37
		c-0.607,0.843-1.127,1.896-1.368,3.18l-0.449-0.166C330.071,213.299,330.646,212.267,331.543,211.37z"/>
</g>
<g>
</g>
<g>
</g>
<g>
</g>
<g>
</g>
<g>
</g>
<g>
</g>
<g>
</g>
<g>
</g>
<g>
</g>
<g>
</g>
<g>
</g>
<g>
</g>
<g>
</g>
<g>
</g>
<g>
</g>
</svg>
